<?xml version="1.0" encoding="UTF-8"?>
<!DOCTYPE svg PUBLIC "-//W3C//DTD SVG 1.1//EN" "http://www.w3.org/Graphics/SVG/1.1/DTD/svg11.dtd">
<!-- Creator: CorelDRAW 2019 (64-Bit) -->
<?xml-stylesheet href="Sin título-1.css" type="text/css"?>
<svg xmlns="http://www.w3.org/2000/svg" xml:space="preserve" width="152.93mm" height="210mm" version="1.1" style="shape-rendering:geometricPrecision; text-rendering:geometricPrecision; image-rendering:optimizeQuality; fill-rule:evenodd; clip-rule:evenodd"
viewBox="0 0 15293 21000"
 xmlns:xlink="http://www.w3.org/1999/xlink">
 <defs>
   <clipPath id="id0">
    <rect x="3865.94" y="9289.72" width="1060.17" height="1143"/>
   </clipPath>
 </defs>
 <g id="Capa_x0020_1">
  <metadata id="CorelCorpID_0Corel-Layer"/>
  <g style="clip-path:url(#id0)">
   <image x="3865.94" y="9289.73" width="1060.17" height="1142.99" xlink:href="Sin título-1_Images\Sin título-1_ImgID1.png"/>
  </g>
  <path class="fil0" d="M4708.88 9496.57c39.51,231.68 -123.71,443.3 -268.06,608.11 -19.97,22.81 -2.32,10.33 -29.33,26.79 -36.79,-24.44 -81.7,-87.7 -114.08,-132.4 -114.21,-157.66 -223.97,-305.74 -180.66,-511.03 -78.06,28.91 -168.98,141.8 -202.76,219.13 -23.85,54.62 -37.22,110.39 -41.43,165.52l0 76.44c19.13,249.78 223.15,467.86 495.94,477.19l43.76 0c133.56,-3.69 223.97,-38.47 304.78,-97.36 130.85,-95.34 204.28,-227.37 215.7,-370.97l0 -80.09c-3.77,-48.2 -14.3,-97.14 -31.76,-145.95 -29.05,-81.25 -112.58,-193.21 -192.1,-235.38z"/>
  <path class="fil1" d="M4300.72 9622.38c-45.51,-143.49 172.12,-193.33 208.76,-65.77 41,142.66 -169.89,188.35 -208.76,65.77zm83.21 -332.66l45.39 0c143,8.45 241.49,106.93 272.94,213.25 39.51,231.67 -123.72,443.3 -268.06,608.11 -19.98,22.8 -2.33,10.33 -29.34,26.79 -36.78,-24.44 -81.69,-87.7 -114.08,-132.41 -114.21,-157.65 -223.96,-305.73 -180.65,-511.02l17.61 -45.47c21.5,-37.63 55.45,-74.21 90.06,-101.02 42.75,-33.12 94.44,-54.44 166.13,-58.23z"/>
  <path class="fil0" d="M4300.72 9622.38c38.87,122.58 249.76,76.89 208.76,-65.77 -36.64,-127.56 -254.27,-77.72 -208.76,65.77z"/>
 </g>
</svg>
