<?xml version="1.0" encoding="UTF-8"?>
<!DOCTYPE svg PUBLIC "-//W3C//DTD SVG 1.1//EN" "http://www.w3.org/Graphics/SVG/1.1/DTD/svg11.dtd">
<!-- Creator: CorelDRAW X8 -->
<svg xmlns="http://www.w3.org/2000/svg" xml:space="preserve" width="270.933mm" height="203.2mm" version="1.1" style="shape-rendering:geometricPrecision; text-rendering:geometricPrecision; image-rendering:optimizeQuality; fill-rule:evenodd; clip-rule:evenodd"
viewBox="0 0 27093 20320"
 xmlns:xlink="http://www.w3.org/1999/xlink">
 <defs>
  <style type="text/css">
   <![CDATA[
    .fil0 {fill:white}
   ]]>
  </style>
   <clipPath id="id0">
    <rect x="10808" y="5146" width="11218" height="11218"/>
   </clipPath>
 </defs>
 <g id="Capa_x0020_1">
  <metadata id="CorelCorpID_0Corel-Layer"/>
  <g style="clip-path:url(#id0)">
   <image id="Logo2.png" x="10808" y="5146" width="11218" height="11218" xlink:href="2.svg_Images\2.svg_ImgID1.png"/>
  </g>
  <g id="_1896515792208">
   <path class="fil0" d="M20107 11331c8,-28 10,-9 -6,-25 -13,13 -38,34 -60,36 3,-36 27,-96 44,-120 87,-119 123,-230 42,-378 -132,-238 -409,-133 -418,-133l-64 -13c-1,-2 -4,-1 -5,-3 18,-30 84,-57 122,-67 249,-68 495,136 473,427 -5,66 -38,145 -78,195l-42 51c12,7 -20,22 27,1 14,-1 2,3 17,-7 23,-15 68,-81 80,-106 117,-247 2,-516 -264,-596 -110,-33 -253,-5 -348,66 -45,34 -29,38 -94,56 -155,44 -299,223 -281,295l-8 83c1,-1 2,-4 2,-5l15 -53c57,-207 276,-341 496,-275 420,125 354,795 -131,786 -1,2 -1,5 -1,6 -1,2 -1,5 -2,6l-3 13c0,2 -1,4 -1,6 -8,20 4,7 -16,23 -17,1 -21,20 -81,47 -47,20 -89,51 -127,82 -1,1 -17,13 -18,13 -33,16 -3,-12 -44,-118 -14,-38 -27,-59 -55,-87l-12 -10c-94,-80 -91,-7 -119,-129 -81,-353 -250,-184 -492,-405l-38 -36c-40,-46 -106,-105 -106,-172 64,-42 75,-9 129,36 54,44 152,113 213,52 31,-31 3,-38 51,-55 36,-12 16,12 32,-19 16,-30 9,-36 37,-68 10,-12 17,-24 25,-36 48,0 72,2 112,-7 0,-116 -17,-106 -23,-179 123,-3 131,-257 115,-339 -10,-52 -22,-79 -39,-119 -59,-147 -214,-237 -366,-254 -89,-11 -182,12 -248,46 -237,121 -139,261 -204,424 -39,98 -116,100 -207,92 -23,-96 -65,-174 -126,-234 -61,-61 -137,-119 -226,-140 0,-114 -22,-191 -80,-249 -51,-50 -142,-111 -219,-117 9,-14 46,-44 63,-57 16,-13 18,-13 32,-27 87,-91 48,-119 184,-235 2,-2 7,-6 8,-7l25 -21c44,-38 107,-96 168,-101 56,-4 57,55 93,99 18,22 36,36 66,46 38,14 42,5 71,11 1,47 20,45 67,45 48,0 75,1 113,-8 9,-41 7,-76 8,-127 0,-49 -1,-100 -1,-149l-122 -73c-42,-20 -94,-40 -146,-48 -72,-12 -88,-22 -170,-4 -319,72 -539,198 -784,391 -39,31 -77,51 -91,103 -42,152 -44,186 -11,342 29,134 104,217 117,271 62,252 180,188 225,366 17,70 9,104 -10,165 -31,101 -32,25 -32,162 -1,108 55,197 97,292l337 784c85,210 203,455 281,655 13,34 8,47 40,64 37,-78 45,-228 74,-285 14,-26 31,-48 46,-74 71,-118 112,-218 112,-367 143,-33 155,-6 292,-97 29,126 159,256 252,338 14,13 12,10 26,20 3,2 10,7 13,9 1,1 3,3 4,4l12 10c44,37 98,67 136,110l24 22c56,47 125,82 196,110 152,59 125,30 203,-41 72,-65 124,-139 168,-228 78,-157 145,-336 183,-506 18,-82 35,-50 142,-164 17,-18 29,-34 51,-46 22,-11 52,-17 58,-42z"/>
   <path class="fil0" d="M15640 12767c0,17 5,23 22,23l209 0 8 -1107c0,45 34,225 43,279 15,94 31,185 46,275l68 410c7,42 19,103 22,143l247 0c1,-39 15,-102 20,-137l63 -416c12,-90 28,-193 42,-280l47 -282 0 1115 247 0 0 -1638 -359 0 -86 571c-5,31 -75,544 -93,573 0,-54 -121,-772 -135,-853 -10,-57 -45,-246 -45,-291l-366 0 0 1615z"/>
   <path class="fil0" d="M15415 10598l-127 0 0 -1166c160,0 277,-36 277,164l0 838c0,105 -40,164 -150,164zm-381 232l419 0c310,0 374,-220 374,-494 0,-135 8,-739 -13,-847 -38,-192 -150,-297 -376,-297l-404 0 0 1638z"/>
   <path class="fil0" d="M16223 10471l0 -920c0,-189 262,-198 262,8l0 912c0,192 -262,192 -262,0zm-262 -890l0 853c0,183 66,324 220,386 107,43 233,42 340,2 24,-9 43,-16 65,-32 109,-78 160,-186 160,-349l0 -852c0,-55 -9,-122 -23,-164 -46,-147 -160,-248 -336,-248 -128,0 -248,11 -334,115 -55,65 -92,170 -92,289z"/>
   <path class="fil0" d="M14473 10613c-86,0 -127,-56 -127,-142l0 -920c0,-81 45,-142 119,-142 107,0 143,59 143,165l0 890c0,93 -41,149 -135,149zm-389 -1047l0 875c0,191 71,317 225,381 44,18 132,34 178,30 257,-17 382,-156 382,-433l0 -800c0,-187 -45,-321 -190,-401 -125,-70 -387,-58 -500,70 -53,60 -95,167 -95,278z"/>
   <path class="fil0" d="M13785 11563l0 763c0,144 14,249 73,338 85,128 203,141 346,141 215,0 351,-159 351,-374l0 -554 -359 0 0 232 112 0 0 337c0,33 -17,74 -35,92 -46,46 -226,76 -226,-130l0 -890c0,-209 261,-187 261,-22l0 209 247 0c0,-237 22,-451 -228,-549 -143,-57 -339,-24 -451,95 -60,64 -91,188 -91,312z"/>
   <path class="fil0" d="M14959 12266l0 524 262 0 0 -531c0,-43 316,-1046 321,-1107l-246 0c-5,53 -186,675 -187,733 -24,-18 -12,-9 -30,-83 -51,-204 -127,-457 -172,-650l-270 0 164 554c25,79 158,512 158,560z"/>
   <polygon class="fil0" points="13201,9432 13471,9432 13471,10830 13725,10830 13725,9432 13994,9432 13994,9192 13201,9192 "/>
   <path class="fil0" d="M19583 11002c182,-58 284,223 86,291 -136,46 -248,-115 -173,-227 29,-44 38,-48 87,-64zm368 187c25,-82 -28,-200 -71,-255 -105,-135 -314,-168 -466,-46 -219,176 -125,552 169,594 106,14 195,-28 252,-76 97,-82 90,-132 116,-217z"/>
   <path class="fil0" d="M19951 11189c-26,85 -19,135 -116,217 -57,48 -146,90 -252,76 -294,-42 -388,-418 -169,-594 152,-122 361,-89 466,46 43,55 96,173 71,255zm-699 -179c-43,33 -26,164 -20,206 27,162 165,309 323,343 27,5 35,1 56,12 -3,12 -4,17 -8,29 20,-16 8,-3 16,-23 0,-2 1,-4 1,-6l3 -13c1,-1 1,-4 2,-6 0,-1 0,-4 1,-6 485,9 551,-661 131,-786 -220,-66 -439,68 -496,275l-15 53c0,1 -1,4 -2,5l8 -83z"/>
   <path class="fil0" d="M20107 11331c31,0 27,-11 35,-29 -47,21 -15,6 -27,-1l42 -51c40,-50 73,-129 78,-195 22,-291 -224,-495 -473,-427 -38,10 -104,37 -122,67 1,2 4,1 5,3l64 13c9,0 286,-105 418,133 81,148 45,259 -42,378 -17,24 -41,84 -44,120 22,-2 47,-23 60,-36 16,16 14,-3 6,25z"/>
   <path class="fil0" d="M19583 11002c-49,16 -58,20 -87,64 -75,112 37,273 173,227 198,-68 96,-349 -86,-291z"/>
  </g>
 </g>
</svg>
