<?xml version="1.0" encoding="UTF-8"?>
<!DOCTYPE svg PUBLIC "-//W3C//DTD SVG 1.1//EN" "http://www.w3.org/Graphics/SVG/1.1/DTD/svg11.dtd">
<!-- Creator: CorelDRAW X8 -->
<svg xmlns="http://www.w3.org/2000/svg" xml:space="preserve" width="270.933mm" height="203.2mm" version="1.1" style="shape-rendering:geometricPrecision; text-rendering:geometricPrecision; image-rendering:optimizeQuality; fill-rule:evenodd; clip-rule:evenodd"
viewBox="0 0 27093 20320"
 xmlns:xlink="http://www.w3.org/1999/xlink">
 <defs>
  <style type="text/css">
   <![CDATA[
    .fil0 {fill:white}
   ]]>
  </style>
   <clipPath id="id0">
    <rect x="9776" y="4696" width="10372" height="10372"/>
   </clipPath>
 </defs>
 <g id="Capa_x0020_1">
  <metadata id="CorelCorpID_0Corel-Layer"/>
  <g style="clip-path:url(#id0)">
   <image id="Icon1.png" x="9776" y="4696" width="10372" height="10372" xlink:href="3.svg_Images\3.svg_ImgID1.png"/>
  </g>
  <path class="fil0" d="M12815 13346l324 0 0 689 -324 0 0 -689zm-2249 0l325 0 0 689 -325 0 0 -689zm2289 -364c-133,0 -201,11 -303,20 0,-515 44,-1100 141,-1519 71,37 105,32 140,103 132,269 149,778 92,1101 -20,110 -62,206 -70,295zm365 -1358l2249 0c-4,156 -184,594 -63,1198 26,130 55,223 83,342l-1985 0c-43,-88 -15,-182 -284,-182 130,-271 133,-1080 0,-1358zm2289 -364l-2309 0c-148,0 -385,-59 -385,-183l0 -1458c0,-43 -16,-47 130,-92 65,-21 133,-45 194,-50 0,570 -134,480 995,707 353,71 179,52 611,-33 943,-186 825,-125 825,-674 140,12 233,75 344,101 0,154 22,1455 -22,1538 -56,106 -256,144 -383,144zm-3302 1377c0,258 -14,637 41,871l-284 0c-64,-121 -101,-231 -130,-396 -24,-134 -51,-357 -53,-494 -10,-771 -6,-1155 279,-1871 63,-159 287,-627 390,-703 0,142 15,940 -12,1042 -25,97 -61,181 -85,279 -87,353 -146,842 -146,1272zm4052 -1945l0 -810 1154 0c276,0 550,-254 614,-581 13,-65 31,-292 35,-371 13,-263 27,-486 40,-749l29 -377c50,-334 -89,-332 194,-332l0 2511c0,217 -158,308 -343,347l-1723 362zm-2755 -1276c581,-135 506,107 506,-729 119,57 570,57 689,0 0,450 -95,670 243,689 130,7 180,32 284,40l0 264 -634 136c-349,75 -210,55 -658,-40 -131,-28 -294,-65 -430,-96l0 -264zm5530 -2127l324 0 0 689 -324 0 0 -689zm-2249 0l324 0 0 689 -324 0 0 -689zm-2431 1094c-60,0 -256,-32 -314,-50 -267,-80 -753,-451 -884,-615 -329,-412 -341,-582 -341,-1097 179,-4 1821,-345 2046,-345l981 479c87,48 61,64 52,209 -34,559 -452,890 -859,1188 -124,90 -263,163 -415,193 -54,11 -205,38 -266,38zm-1499 -2127c4,-145 129,-395 195,-494 188,-288 450,-505 775,-623 115,-42 438,-115 602,-90 377,56 690,126 986,412 116,111 225,246 299,390 127,246 118,253 182,527 -104,-25 -378,-179 -493,-237 -689,-344 -414,-252 -1533,-67 -165,27 -326,57 -498,89 -180,35 -348,54 -515,93zm-405 304c0,628 49,925 420,1363 31,38 28,42 61,80l309 259c-173,259 -906,567 -1296,567l0 -2370c0,-553 398,-1011 911,-1054 -230,344 -405,686 -405,1155zm567 -1519c-862,0 -1438,630 -1438,1479l0 2430c0,256 152,243 284,243 433,0 1016,-203 1331,-430 105,-76 264,-180 330,-279 183,97 142,17 142,547l-568 81c-172,42 -346,99 -500,169 -204,92 -61,74 -217,269 -34,43 -46,56 -81,101 -104,131 -191,248 -279,389l-416 922c-222,583 -272,2033 -26,2546l-324 0c0,-602 48,-526 -810,-526 -140,0 -243,64 -243,202l0 1013c0,100 82,182 182,182l689 0c228,0 182,-292 182,-506l952 0 -189 539c-28,100 -42,198 -60,305 -18,103 -9,242 -34,351l364 0c0,-198 36,-432 90,-620 21,-74 46,-113 52,-190l41 0c19,73 70,121 162,121l688 0c125,0 183,-96 183,-223l0 -648 2106 0c105,0 405,535 449,645 70,175 164,455 178,653 7,100 22,181 22,262l344 0c0,-587 -148,-982 -391,-1391l-255 -354c-197,-242 -225,-750 -225,-1091 0,-169 90,-606 171,-680 20,-18 97,-52 129,-73 51,-32 80,-56 118,-106 64,-86 109,-174 109,-316 122,-3 1403,-296 1608,-336 192,-37 372,-69 507,-161 355,-244 315,-589 315,-1002 0,-439 0,-878 0,-1317 46,31 72,81 122,81l770 0c74,0 142,-98 142,-182l0 -1013c0,-83 -68,-182 -142,-182l-770 0c-103,0 -142,143 -142,263 -134,-154 -307,-101 -668,-101 -195,0 -203,191 -203,344l-324 0c0,-614 78,-506 -911,-506 -87,0 -142,125 -142,223l0 932c0,97 55,222 142,222l749 0c211,0 162,-286 162,-506l304 0 -41 506c-1,160 -46,932 -93,1021 -70,132 -182,195 -372,195l-1013 0c0,-186 -9,-198 -203,-284 -72,-32 -215,-83 -299,-106 -127,-34 -573,-117 -694,-117 0,-506 -41,-462 94,-534l318 -229c451,-366 784,-766 784,-1404 0,-476 20,-619 -177,-1080 -242,-567 -945,-1088 -1626,-1088 -369,0 -515,9 -848,145 -91,37 -188,85 -267,139 -192,132 -83,61 -324,61z"/>
 </g>
</svg>
