<?xml version="1.0" encoding="UTF-8"?>
<!DOCTYPE svg PUBLIC "-//W3C//DTD SVG 1.1//EN" "http://www.w3.org/Graphics/SVG/1.1/DTD/svg11.dtd">
<!-- Creator: CorelDRAW X8 -->
<svg xmlns="http://www.w3.org/2000/svg" xml:space="preserve" width="270.933mm" height="203.2mm" version="1.1" style="shape-rendering:geometricPrecision; text-rendering:geometricPrecision; image-rendering:optimizeQuality; fill-rule:evenodd; clip-rule:evenodd"
viewBox="0 0 27093 20320"
 xmlns:xlink="http://www.w3.org/1999/xlink">
 <defs>
  <style type="text/css">
   <![CDATA[
    .fil0 {fill:white}
   ]]>
  </style>
   <clipPath id="id0">
    <rect x="9721" y="8623" width="8678" height="8678"/>
   </clipPath>
 </defs>
 <g id="Capa_x0020_1">
  <metadata id="CorelCorpID_0Corel-Layer"/>
  <g style="clip-path:url(#id0)">
   <image id="Icon3.png" x="9721" y="8623" width="8678" height="8678" xlink:href="4.svg_Images\4.svg_ImgID1.png"/>
  </g>
  <g id="_1896357736704">
   <path class="fil0" d="M9873 14826c0,422 -84,540 366,720 89,35 187,66 259,114 74,49 139,103 213,159l651 468c42,31 67,43 115,72 45,28 67,44 114,72l232 141c239,138 502,263 776,343 1476,431 3107,-77 3207,-39l368 159c411,162 880,250 1346,266l307 0c90,-3 179,-9 267,-17 222,-22 180,-325 -40,-296l-367 26c-140,2 -576,-49 -709,-71 -309,-52 -620,-146 -900,-269 -275,-122 -221,-138 -488,-81l-658 122c-355,52 -759,78 -1143,78 -1052,0 -1722,-367 -2424,-865 -357,-253 -614,-500 -993,-651 -278,-111 -210,-106 -210,-383 0,-134 59,-358 91,-485 198,-786 391,-1562 611,-2338 90,-319 167,-614 257,-930 44,-159 86,-300 125,-450 35,-130 148,-581 198,-684 37,-78 107,-82 187,-119 389,-181 842,-367 1220,-559 137,-70 701,-340 819,-367 65,43 130,155 184,222 65,82 119,159 185,239l273 355c93,123 135,173 24,290l-576 645c-164,196 -155,173 -344,29 -99,-76 -162,-204 -305,-204 -131,0 -58,142 -457,170 -47,4 -68,10 -89,11 -68,4 -150,-30 -212,27 -166,151 94,253 116,451 33,305 39,655 65,969 13,164 0,344 22,503 25,182 69,798 19,960 -22,72 -40,120 -67,188 -30,77 -41,104 -102,152 -287,230 233,591 451,-244 31,-123 31,-113 128,-177 552,-359 1086,-410 1693,-170 294,117 465,273 636,499 169,222 167,450 262,502 201,109 379,-157 -92,-773 -26,-34 -45,-50 -68,-85 289,-431 830,-745 1390,-745 755,0 1170,491 1313,465 173,-32 159,-206 16,-303 -302,-205 -613,-352 -980,-426 -171,-35 -348,-32 -519,-25 -320,14 -593,135 -848,287 -202,121 -465,353 -592,544 -182,-49 -839,-621 -1833,-290 -178,59 -321,142 -472,222 0,-195 -33,-380 -35,-559l-17 -423c-5,-64 -15,-59 -17,-136l-16 -424c-4,-74 -13,-62 -17,-136 -3,-49 2,-103 0,-153 -4,-73 -13,-62 -17,-135 -3,-49 2,-103 0,-153 -4,-75 -15,-61 -17,-135 194,0 342,-144 436,-65 148,124 193,217 428,217 228,0 399,-283 547,-436 37,-37 37,-47 69,-84 154,-185 469,-422 469,-683 0,-237 -294,-523 -431,-705l-368 -479c-69,-94 -123,-133 -180,-138l-28 0c-95,8 -206,96 -407,179l-1721 787c-330,163 -352,133 -452,480l-622 2226c-146,497 -251,983 -394,1488 -47,163 -91,342 -124,502 -32,153 -104,377 -104,541z"/>
   <path class="fil0" d="M16738 11148l-826 -817c-171,-171 -208,-191 -208,-437 0,-217 236,-426 468,-401 330,37 377,333 566,333 158,0 419,-580 868,-223 90,72 149,198 149,342 0,181 -88,267 -182,360l-559 559c-74,74 -226,210 -276,284zm-1339 -1220c0,405 271,585 564,877 50,50 668,699 724,699 152,0 149,-38 259,-148l898 -898c293,-302 269,-710 16,-1025 -223,-277 -721,-323 -1032,-60 -44,38 -59,65 -107,97 -206,-308 -775,-393 -1115,-47 -108,111 -207,291 -207,505z"/>
   <path class="fil0" d="M11602 15115c0,110 280,417 369,495l234 190c683,514 1497,647 2354,491 109,-19 184,-27 217,-123 29,-82 -35,-189 -123,-189 -144,0 -348,68 -593,68 -500,0 -487,18 -983,-119 -185,-50 -366,-151 -520,-242 -218,-130 -446,-336 -601,-535 -49,-62 -102,-189 -201,-189 -84,0 -153,69 -153,153z"/>
   <path class="fil0" d="M17077 15250c0,337 590,512 860,564 115,22 310,62 310,-123 0,-144 -153,-151 -225,-165 -197,-38 -414,-96 -573,-207 -138,-97 -31,-204 -253,-204 -50,0 -119,84 -119,135z"/>
  </g>
 </g>
</svg>
