<?xml version="1.0" encoding="UTF-8"?>
<!DOCTYPE svg PUBLIC "-//W3C//DTD SVG 1.1//EN" "http://www.w3.org/Graphics/SVG/1.1/DTD/svg11.dtd">
<!-- Creator: CorelDRAW X8 -->
<svg xmlns="http://www.w3.org/2000/svg" xml:space="preserve" width="270.933mm" height="203.2mm" version="1.1" style="shape-rendering:geometricPrecision; text-rendering:geometricPrecision; image-rendering:optimizeQuality; fill-rule:evenodd; clip-rule:evenodd"
viewBox="0 0 27093 20320"
 xmlns:xlink="http://www.w3.org/1999/xlink">
 <defs>
  <style type="text/css">
   <![CDATA[
    .fil0 {fill:white}
   ]]>
  </style>
   <clipPath id="id0">
    <rect x="8451" y="7141" width="11113" height="11113"/>
   </clipPath>
 </defs>
 <g id="Capa_x0020_1">
  <metadata id="CorelCorpID_0Corel-Layer"/>
  <g style="clip-path:url(#id0)">
   <image id="Icon2.png" x="8451" y="7141" width="11113" height="11113" xlink:href="5.svg_Images\5.svg_ImgID1.png"/>
  </g>
  <path class="fil0" d="M16069 14889l0 -4384c0,-189 48,-323 132,-432 302,-386 997,-178 997,324l0 4601c0,250 -247,521 -500,521 -205,0 -347,-6 -497,-198 -84,-108 -132,-242 -132,-432zm1671 -21l-195 0 0 -4341c254,0 413,-15 621,160 84,71 204,259 204,404l0 3212c0,142 -116,325 -192,394 -99,90 -254,171 -438,171zm1129 -1433l-152 0 0 -1476c239,0 521,5 521,413 0,467 103,1063 -369,1063zm-10093 -412c0,-480 -103,-1064 369,-1064l152 0 0 1476c-235,0 -521,-7 -521,-412zm1693 -1259l0 3104c-254,0 -413,14 -621,-161 -83,-70 -203,-258 -203,-404l0 -3212c0,-266 279,-564 629,-564l195 0c0,208 -52,608 174,608 274,0 145,-522 176,-780 26,-225 243,-479 497,-479 205,0 348,6 497,197 85,109 132,243 132,432l0 4384c0,338 -208,630 -499,630 -425,0 -632,-205 -629,-651 2,-393 21,-2905 0,-3169 -20,-244 -348,-252 -348,65zm44 -1584c-409,0 -640,46 -864,243 -108,95 -181,171 -251,313 -130,265 -101,576 -101,876 -365,0 -581,82 -756,351 -40,61 -90,183 -90,279l0 911c0,276 311,608 608,608l238 0c0,296 -29,620 94,883 32,70 62,117 108,174 92,114 173,189 304,261 81,44 98,53 196,85 131,43 345,51 514,51 81,170 105,303 294,444 496,369 1072,230 1360,-266 38,-65 104,-236 104,-330l0 -1563 2908 0c322,0 298,-347 44,-347l-2952 0 0 -911 3472 0 0 2821c0,84 62,255 96,317l145 202c427,439 1097,347 1400,-116 56,-86 76,-164 118,-251 524,0 904,-126 1114,-556 131,-268 101,-595 101,-898 254,0 437,20 653,-194 75,-76 193,-266 193,-414l0 -911c0,-190 -134,-366 -264,-474 -147,-121 -322,-156 -582,-156 0,-496 39,-998 -505,-1296 -233,-127 -408,-136 -710,-136 -82,-170 -105,-303 -295,-444 -385,-287 -826,-282 -1181,31 -109,96 -283,366 -283,565l0 1562 -3472 0 0 -1562c0,-467 -711,-1157 -1464,-596 -79,59 -122,109 -176,192 -57,87 -76,165 -118,252z"/>
 </g>
</svg>
