<?xml version="1.0" encoding="UTF-8"?>
<!DOCTYPE svg PUBLIC "-//W3C//DTD SVG 1.1//EN" "http://www.w3.org/Graphics/SVG/1.1/DTD/svg11.dtd">
<!-- Creator: CorelDRAW X8 -->
<svg xmlns="http://www.w3.org/2000/svg" xml:space="preserve" width="270.933mm" height="203.2mm" version="1.1" style="shape-rendering:geometricPrecision; text-rendering:geometricPrecision; image-rendering:optimizeQuality; fill-rule:evenodd; clip-rule:evenodd"
viewBox="0 0 27093 20320"
 xmlns:xlink="http://www.w3.org/1999/xlink">
 <defs>
  <style type="text/css">
   <![CDATA[
    .fil0 {fill:white}
   ]]>
  </style>
   <clipPath id="id0">
    <rect x="-36539" y="-11800" width="10372" height="10372"/>
   </clipPath>
   <clipPath id="id1">
    <rect x="-17277" y="-10425" width="11113" height="11113"/>
   </clipPath>
   <clipPath id="id2">
    <rect x="4948" y="-15928" width="8678" height="8678"/>
   </clipPath>
   <clipPath id="id3">
    <rect x="26961" y="-13600" width="11218" height="11218"/>
   </clipPath>
   <clipPath id="id4">
    <rect x="3675" y="4471" width="8246" height="4044"/>
   </clipPath>
 </defs>
 <g id="Capa_x0020_1">
  <metadata id="CorelCorpID_0Corel-Layer"/>
  <g style="clip-path:url(#id0)">
   <image id="Icon1.png" x="-36539" y="-11800" width="10372" height="10372" xlink:href="24904-Sin título-1-606da7b8-1bf4-4474-ad4b-18dc6b25af00_Images\24904-Sin título-1-606da7b8-1bf4-4474-ad4b-18dc6b25af00_ImgID1.png"/>
  </g>
  <g style="clip-path:url(#id1)">
   <image id="Icon2.png" x="-17277" y="-10425" width="11113" height="11113" xlink:href="24904-Sin título-1-606da7b8-1bf4-4474-ad4b-18dc6b25af00_Images\24904-Sin título-1-606da7b8-1bf4-4474-ad4b-18dc6b25af00_ImgID2.png"/>
  </g>
  <g style="clip-path:url(#id2)">
   <image id="Icon3.png" x="4948" y="-15928" width="8678" height="8678" xlink:href="24904-Sin título-1-606da7b8-1bf4-4474-ad4b-18dc6b25af00_Images\24904-Sin título-1-606da7b8-1bf4-4474-ad4b-18dc6b25af00_ImgID3.png"/>
  </g>
  <g style="clip-path:url(#id3)">
   <image id="Logo2.png" x="26961" y="-13600" width="11218" height="11218" xlink:href="24904-Sin título-1-606da7b8-1bf4-4474-ad4b-18dc6b25af00_Images\24904-Sin título-1-606da7b8-1bf4-4474-ad4b-18dc6b25af00_ImgID4.png"/>
  </g>
  <g style="clip-path:url(#id4)">
   <image id="small-ogo.png" x="3675" y="4471" width="8246" height="4044" xlink:href="24904-Sin título-1-606da7b8-1bf4-4474-ad4b-18dc6b25af00_Images\24904-Sin título-1-606da7b8-1bf4-4474-ad4b-18dc6b25af00_ImgID5.png"/>
  </g>
  <g id="_1896357720448">
   <path class="fil0" d="M5528 4908l0 3163c0,138 113,234 271,234 159,0 342,23 442,-63 37,-31 78,-111 78,-178l0 -3148c0,-112 -95,-219 -166,-219l-460 0c-67,0 -165,105 -165,211z"/>
   <path class="fil0" d="M9301 4968l0 3050c0,338 277,287 519,287 151,0 271,-90 271,-211l0 -3193c0,-107 -98,-204 -158,-204l-467 0c-30,0 -51,20 -71,35 -73,55 -94,135 -94,236z"/>
   <path class="fil0" d="M4662 5481l0 1958c0,121 105,233 226,233l339 0c117,0 225,-109 225,-226l0 -1988c0,-116 -109,-226 -225,-226l-347 0c-60,0 -125,44 -156,77 -38,41 -62,95 -62,172z"/>
   <path class="fil0" d="M10174 5435l0 2034c0,91 102,203 219,203l354 0c96,0 210,-108 210,-203l0 -2034c0,-94 -115,-203 -210,-203l-362 0c-98,0 -211,106 -211,203z"/>
   <path class="fil0" d="M8051 6610l0 1205 173 0 7 -828 127 799c10,48 33,29 190,29 14,-61 22,-135 31,-202l76 -504c5,-34 13,-62 13,-107l8 813 188 0 0 -1227 -271 0 -31 210c-10,73 -20,140 -32,217 -9,65 -21,136 -32,208 -10,71 -18,152 -33,216l-38 -211c-22,-134 -82,-539 -105,-640 -48,0 -96,0 -143,0 -67,0 -128,-14 -128,22z"/>
   <path class="fil0" d="M11530 6881c119,3 202,-104 216,-205 12,-82 8,-351 -10,-415 -14,-50 -52,-95 -90,-121 -60,-41 -81,-42 -177,-42 -141,0 -283,0 -425,0l-4 784 490 -1z"/>
   <path class="fil0" d="M8088 6181l-98 0 0 -874c120,0 204,-22 204,113l0 655c0,66 -40,106 -106,106zm-293 173l338 0c175,0 256,-136 256,-309l0 -617c0,-359 -310,-301 -594,-301l0 1227z"/>
   <path class="fil0" d="M4037 6119c-32,-8 -65,20 -91,46 -96,97 -67,217 -67,362 0,114 -12,176 35,252 26,42 113,119 183,96l484 2 0 -774c-108,0 -469,-14 -544,16z"/>
   <path class="fil0" d="M7403 6188c-49,0 -121,7 -121,-97l0 -693c0,-144 196,-142 196,0l0 677c0,58 -19,113 -75,113zm-316 -768l0 648c0,369 408,346 515,214 47,-57 72,-122 72,-222l0 -625c0,-201 -91,-312 -288,-319 -188,-7 -299,112 -299,304z"/>
   <path class="fil0" d="M8804 6188c-45,0 -113,-3 -113,-82l0 -716c0,-121 135,-116 175,-62 14,19 20,53 20,85l0 655c0,62 -21,120 -82,120zm-309 -790l0 700c0,160 115,271 294,271 210,0 293,-134 293,-346l0 -573c0,-239 -112,-343 -331,-331 -156,7 -256,121 -256,279z"/>
   <path class="fil0" d="M6665 6881l0 648c0,371 422,359 527,188 73,-120 53,-395 53,-565 0,-17 -5,-22 -23,-22l-233 0c-37,0 -23,59 -23,158 0,31 26,23 91,23l0 233c0,139 -149,117 -179,73 -11,-18 -17,-54 -17,-81l0 -677c0,-143 196,-143 196,0l0 143 188 0c0,-182 -8,-409 -249,-422 -44,-3 -90,-5 -136,7 -139,36 -195,156 -195,294z"/>
   <path class="fil0" d="M7546 7439l0 376 188 0 0 -369c0,-46 14,-72 26,-110l156 -529c14,-44 58,-173 59,-219l-180 0c-43,184 -100,364 -144,549l-134 -491c-17,-74 17,-58 -212,-58 0,41 15,71 26,109 25,90 215,703 215,742z"/>
   <path class="fil0" d="M6424 5149l0 158 203 0 0 1047 196 0 0 -1047 196 0 0 -180 -572 0c-18,0 -23,5 -23,22z"/>
   <path class="fil0" d="M4037 6119c75,-30 436,-16 544,-16l0 774 -484 -2c19,23 61,14 113,14l376 0 0 -791 -421 0c-23,0 -46,-1 -68,0 -67,0 -53,13 -60,21z"/>
   <path class="fil0" d="M11530 6881l-490 1 4 -784c-15,16 -3,-7 -10,16 -1,7 -2,14 -2,21 -1,15 1,38 1,53l0 701 437 0c24,0 43,3 60,-8z"/>
  </g>
 </g>
</svg>
